<?xml version="1.0" encoding="UTF-8" standalone="no"?>
<svg width="25px" height="25px" viewBox="0 0 25 25" version="1.1" xmlns="http://www.w3.org/2000/svg" xmlns:xlink="http://www.w3.org/1999/xlink" xmlns:sketch="http://www.bohemiancoding.com/sketch/ns">
    <!-- Generator: Sketch 3.0.4 (8054) - http://www.bohemiancoding.com/sketch -->
    <title>facebook</title>
    <desc>Created with Sketch.</desc>
    <defs></defs>
    <g id="Page-1" stroke="none" stroke-width="1" fill="none" fill-rule="evenodd" sketch:type="MSPage">
        <g id="facebook" sketch:type="MSLayerGroup" transform="translate(6.831897, 0.607422)" fill="#3D3D3D">
            <path d="M-0.0250467852,7.80825472 L2.49832337,7.80825472 L2.49832337,6.70296058 L2.49832337,5.62013508 L2.49832337,5.43957393 C2.49832337,4.39735438 2.5261739,2.78665144 3.31122239,1.78963985 C4.13832705,0.733704515 5.27384362,0.016513089 7.22721249,0.016513089 C10.4092757,0.016513089 11.7504937,0.454064829 11.7504937,0.454064829 L11.1196511,4.06357342 C11.1196511,4.06357342 10.0682469,3.77021794 9.08693629,3.77021794 C8.10562567,3.77021794 7.22721249,4.10860091 7.22721249,5.05607323 L7.22721249,5.43957393 L7.22721249,6.70296058 L7.22721249,7.80825472 L11.2503991,7.80825472 L10.9700246,11.3319494 L7.22721249,11.3319494 L7.22721249,23.5769914 L2.49822991,23.5769914 L2.49822991,11.3319494 L-0.0251402434,11.3319494 L-0.0250467852,7.80825472 L-0.0250467852,7.80825472 Z" id="Shape" sketch:type="MSShapeGroup"></path>
        </g>
    </g>
</svg>