<?xml version="1.0" encoding="UTF-8" standalone="no"?>
<svg width="24px" height="25px" viewBox="0 0 24 25" version="1.1" xmlns="http://www.w3.org/2000/svg" xmlns:xlink="http://www.w3.org/1999/xlink" xmlns:sketch="http://www.bohemiancoding.com/sketch/ns">
    <!-- Generator: Sketch 3.0.4 (8054) - http://www.bohemiancoding.com/sketch -->
    <title>googleplus</title>
    <desc>Created with Sketch.</desc>
    <defs></defs>
    <g id="Page-1" stroke="none" stroke-width="1" fill="none" fill-rule="evenodd" sketch:type="MSPage">
        <g id="googleplus" sketch:type="MSLayerGroup" transform="translate(0.000000, 2.289669)" fill="#3D3D3D">
            <path d="M8.57215705,9.42422676 C8.57215705,8.1499736 11.4091351,7.78040349 11.4091351,4.78604081 C11.4091351,2.98938908 11.2414413,1.90627815 9.81008599,1.26919423 C9.81008599,0.823081897 12.3374091,1.11619511 12.3374091,0.283617053 L6.80144201,0.283617053 C6.80144201,0.283617053 1.19648042,0.419293912 1.19648042,5.10859335 C1.19648042,9.79780745 6.09647188,9.25416137 6.09647188,9.25416137 L6.09647188,10.4436805 C6.09647188,10.9234987 6.75403528,10.7622225 6.83572339,11.7346586 C6.50465339,11.7346586 0.0273732891,11.5651052 0.0273732891,15.8121322 C0.0273732891,20.0591592 5.73543806,19.8558999 5.73543806,19.8558999 C5.73543806,19.8558999 12.3374954,20.1532797 12.3374954,14.8780098 C12.3374091,11.7179337 8.57215705,10.6985653 8.57215705,9.42422676 L8.57215705,9.42422676 Z M3.78943035,5.38062971 C3.27123758,3.49753731 3.95427454,1.67451818 5.31525375,1.30904398 C6.67623296,0.943057786 8.19955218,2.17310931 8.71774495,4.05620171 C9.23628313,5.93972077 8.55333252,7.76299589 7.19226695,8.12898209 C5.83111504,8.49437096 4.30788217,7.26397811 3.78943035,5.38062971 L3.78943035,5.38062971 Z M6.62433597,18.4993873 C4.33931396,18.6525571 2.39563773,17.4415345 2.28303593,15.7947246 C2.16982968,14.1476587 3.930528,12.6887485 6.21555,12.5359201 C8.50109012,12.3829209 10.4452845,13.5936876 10.5584044,15.2402414 C10.6710925,16.8878193 8.90978973,18.3465589 6.62433597,18.4993873 L6.62433597,18.4993873 Z M22.7231113,4.09076091 L22.7231113,5.21210028 L18.8694358,5.21210028 L18.8694358,9.01642821 L17.73461,9.01642821 L17.73461,5.21210028 L13.8846476,5.21210028 L13.8846476,4.09076091 L17.73461,4.09076091 L17.73461,0.282337082 L18.8694358,0.282337082 L18.8694358,4.09076091 L22.7231113,4.09076091 Z" id="Shape" sketch:type="MSShapeGroup"></path>
        </g>
    </g>
</svg>