<?xml version="1.0" encoding="UTF-8" standalone="no"?>
<svg width="25px" height="24px" viewBox="0 0 25 24" version="1.1" xmlns="http://www.w3.org/2000/svg" xmlns:xlink="http://www.w3.org/1999/xlink" xmlns:sketch="http://www.bohemiancoding.com/sketch/ns">
    <!-- Generator: Sketch 3.0.4 (8054) - http://www.bohemiancoding.com/sketch -->
    <title>linkedin</title>
    <desc>Created with Sketch.</desc>
    <defs></defs>
    <g id="Page-1" stroke="none" stroke-width="1" fill="none" fill-rule="evenodd" sketch:type="MSPage">
        <g id="linkedin" sketch:type="MSLayerGroup" transform="translate(2.570313, 2.130792)" fill="#3D3D3D">
            <path d="M6.67099347,18.5297531 L10.9645601,18.5297531 L10.9645601,11.5212327 C10.9645601,11.146116 10.9924895,10.7712554 11.1058756,10.5035709 C11.4161725,9.75342295 12.1229255,8.97699293 13.3087811,8.97699293 C14.8626367,8.97699293 15.4841086,10.1281129 15.4841086,11.8157112 L15.4841086,18.5297531 L19.777324,18.5297531 L19.777324,11.3335037 C19.777324,7.47891561 17.6592605,5.68507981 14.8341804,5.68507981 C12.5180644,5.68507981 11.5010144,6.94286402 10.9364551,7.79950552 L10.9645601,7.79950552 L10.9645601,5.97964366 L6.67099347,5.97964366 C6.72729131,7.15687507 6.67099347,18.5297531 6.67099347,18.5297531 L6.67099347,18.5297531 L6.67099347,18.5297531 Z M4.29497868,18.5297531 L4.29497868,5.97964366 L0.0017633189,5.97964366 L0.0017633189,18.5297531 L4.29497868,18.5297531 L4.29497868,18.5297531 Z M2.14854665,4.26627532 C3.64540172,4.26627532 4.57752182,3.30194565 4.57752182,2.0976642 C4.54950464,0.866503367 3.64540172,-0.0708615975 2.17691514,-0.0708615975 C0.707989429,-0.0708615975 -0.252060019,0.866503367 -0.252060019,2.0976642 C-0.252060019,3.30194565 0.679620938,4.26627532 2.1206173,4.26627532 L2.14854665,4.26627532 L2.14854665,4.26627532 Z" id="Shape" sketch:type="MSShapeGroup"></path>
        </g>
    </g>
</svg>