<?xml version="1.0" encoding="UTF-8" standalone="no"?>
<svg width="25px" height="24px" viewBox="0 0 25 24" version="1.1" xmlns="http://www.w3.org/2000/svg" xmlns:xlink="http://www.w3.org/1999/xlink" xmlns:sketch="http://www.bohemiancoding.com/sketch/ns">
    <!-- Generator: Sketch 3.0.4 (8054) - http://www.bohemiancoding.com/sketch -->
    <title>rss</title>
    <desc>Created with Sketch.</desc>
    <defs></defs>
    <g id="Page-1" stroke="none" stroke-width="1" fill="none" fill-rule="evenodd" sketch:type="MSPage">
        <g id="rss" sketch:type="MSLayerGroup" transform="translate(3.056775, 2.130792)" fill="#3D3D3D">
            <path d="M0.369675416,3.57457934 C8.73776537,3.57457934 15.545764,10.2250494 15.545764,18.3994521 L19.1637566,18.3994521 C19.1637566,8.28691824 10.732606,0.0594393858 0.369675416,0.0594393858 L0.369675416,3.57457934 L0.369675416,3.57457934 Z M0.364405727,9.80615773 C2.71275465,9.80615773 4.91952461,10.6977851 6.57842261,12.3171183 C8.23986761,13.9390967 9.15468557,16.0981507 9.15468557,18.3957829 L12.7725903,18.3957829 C12.7725903,11.7212494 7.20621818,6.29093245 0.364405727,6.29093245 L0.364405727,9.80615773 L0.364405727,9.80615773 Z M5.37333263,15.9442983 C5.37333263,17.2889498 4.2510646,18.3785459 2.86733219,18.3785459 C1.48377543,18.3785459 0.361507399,17.2887792 0.361507399,15.9442983 C0.361507399,14.5993054 1.48377543,13.5091973 2.86733219,13.5091973 C4.2510646,13.5091973 5.37333263,14.5995614 5.37333263,15.9442983 Z" id="Shape" sketch:type="MSShapeGroup"></path>
        </g>
    </g>
</svg>