<?xml version="1.0" encoding="UTF-8" standalone="no"?>
<svg width="25px" height="25px" viewBox="0 0 25 25" version="1.1" xmlns="http://www.w3.org/2000/svg" xmlns:xlink="http://www.w3.org/1999/xlink" xmlns:sketch="http://www.bohemiancoding.com/sketch/ns">
    <!-- Generator: Sketch 3.0.4 (8054) - http://www.bohemiancoding.com/sketch -->
    <title>twitter</title>
    <desc>Created with Sketch.</desc>
    <defs></defs>
    <g id="Page-1" stroke="none" stroke-width="1" fill="none" fill-rule="evenodd" sketch:type="MSPage">
        <g id="twitter" sketch:type="MSLayerGroup" transform="translate(0.719962, 3.130792)" fill="#3D3D3D">
            <path d="M22.7314912,2.30494878 C21.8958604,2.67157545 20.9978447,2.91936202 20.0555027,3.03080281 C21.0172716,2.46033424 21.7561326,1.55698706 22.1040841,0.480478036 C21.2037882,1.00880665 20.2060841,1.39239758 19.1453566,1.59903678 C18.2955889,0.703179149 17.0845536,0.143448598 15.7444616,0.143448598 C13.1713537,0.143448598 11.0851955,2.20731401 11.0851955,4.75303677 C11.0851955,5.11424932 11.1263294,5.4661676 11.2056788,5.80355799 C7.33324808,5.61126622 3.90015739,3.7761477 1.60221844,0.987150137 C1.201185,1.66797667 0.971345498,2.45979282 0.971345498,3.30466743 C0.971345498,4.9040007 1.79384256,6.31483209 3.04409646,7.14156937 C2.28033616,7.11756674 1.56190532,6.91020565 0.933768564,6.56487455 C0.933312533,6.58418494 0.933312533,6.60340509 0.933312533,6.62289595 C0.933312533,8.85631379 2.53936163,10.7193151 4.67075815,11.1430608 C4.27984859,11.2482753 3.86823524,11.3046725 3.44330578,11.3046725 C3.14305514,11.3046725 2.85119546,11.2757971 2.56663227,11.2220168 C3.15956345,13.0533454 4.88034988,14.3861232 6.91908095,14.4234807 C5.32452383,15.6597064 3.31552597,16.3965692 1.13250676,16.3965692 C0.756372602,16.3965692 0.385619602,16.3750029 0.0210686207,16.3320508 C2.08296605,17.6399236 4.5321248,18.4032253 7.16333102,18.4032253 C15.7335169,18.4032253 20.4200537,11.3786656 20.4200537,5.28714045 C20.4200537,5.08735915 20.4154934,4.88857043 20.4067376,4.69077431 C21.3171574,4.04125948 22.1069115,3.22932082 22.7314912,2.30494878 L22.7314912,2.30494878 Z" id="Shape" sketch:type="MSShapeGroup"></path>
        </g>
    </g>
</svg>