<?xml version="1.0" encoding="utf-8"?>
<!-- Generator: Adobe Illustrator 19.1.0, SVG Export Plug-In . SVG Version: 6.00 Build 0)  -->
<svg version="1.2" baseProfile="tiny" id="Layer_1" xmlns="http://www.w3.org/2000/svg" xmlns:xlink="http://www.w3.org/1999/xlink"
	 x="0px" y="0px" viewBox="0 0 16 16" xml:space="preserve">
<g>
	<path fill-rule="evenodd" fill="#FFFFFF" d="M5,14c-0.6,0-1,0.4-1,1c0,0.6,0.4,1,1,1c0.6,0,1-0.5,1-1C6,14.4,5.5,14,5,14z
		 M14.8,2.1l-10.9,0l-0.2-1C3.7,1.1,3,0,1.7,0C1.7,0,0,0.3,0,1.5h1.9c0,0,1.2,9.7,1.2,9.9c0,0.7,0.8,1.6,1.1,1.6h10.2
		c0.9,0,0.9-1.9,0-1.9H4.9l-0.2-1h10.2c0,0,1.2,0,1.2-1.2l0-5.6C16,3.2,15.9,2.1,14.8,2.1z M14,7.5c0,0.3-0.3,0.6-0.6,0.6L5.1,8.1
		c-0.3,0-0.6-0.3-0.6-0.6L4.3,4.7c0-0.3,0.3-0.6,0.6-0.6L13.4,4C13.7,4,14,4.3,14,4.6V7.5z M12,14c-0.6,0-1,0.4-1,1c0,0.6,0.4,1,1,1
		c0.6,0,1-0.5,1-1C13,14.4,12.5,14,12,14z"/>
</g>
</svg>
